<svg xmlns="http://www.w3.org/2000/svg" width="64px" height="15px" viewBox="0 0 64 15"><path fill="#F79C34" fill-rule="evenodd" d="M25.324 10.798c-2.34 1.8-5.733 2.758-8.655 2.758-4.095 0-7.783-1.578-10.574-4.205-.219-.207-.023-.488.24-.329 3.01 1.827 6.734 2.927 10.58 2.927 2.594 0 5.445-.562 8.07-1.722.395-.175.727.272.34.57z" clip-rule="evenodd"></path><path fill="#F79C34" fill-rule="evenodd" d="M26.3 9.638c-.3-.4-1.98-.19-2.734-.095-.229.029-.264-.18-.058-.33 1.34-.982 3.535-.698 3.79-.37.257.331-.068 2.626-1.323 3.721-.193.168-.377.079-.291-.144.283-.735.915-2.382.615-2.782z" clip-rule="evenodd"></path><path fill="#333E47" fill-rule="evenodd" d="M23.618 2.282V1.33c.001-.145.106-.242.232-.241h4.098c.131 0 .237.099.237.24v.817c-.002.138-.112.316-.309.6l-2.123 3.16c.788-.019 1.622.104 2.338.524.161.094.205.234.217.372v1.017c0 .14-.147.302-.302.218-1.261-.69-2.935-.764-4.33.008-.142.08-.291-.08-.291-.221v-.967c0-.154.003-.42.152-.655l2.46-3.678h-2.142a.233.233 0 01-.237-.24zM8.67 8.237H7.422a.24.24 0 01-.224-.22l.002-6.67a.24.24 0 01.24-.24l1.161-.001a.239.239 0 01.227.224v.87h.023c.303-.842.873-1.235 1.641-1.235.78 0 1.269.393 1.618 1.236.303-.843.99-1.236 1.722-1.236.524 0 1.094.225 1.443.73.396.562.315 1.376.315 2.092l-.001 4.21a.24.24 0 01-.24.24h-1.246a.239.239 0 01-.224-.24V4.462c0-.28.023-.982-.035-1.25-.093-.449-.372-.575-.733-.575-.303 0-.617.21-.745.547-.128.338-.116.899-.116 1.278v3.536a.24.24 0 01-.24.24h-1.246a.24.24 0 01-.224-.24l-.002-3.536c0-.744.117-1.839-.767-1.839-.897 0-.861 1.067-.861 1.839L8.91 7.997a.24.24 0 01-.24.24zM31.725 2.327c-.92 0-.978 1.305-.978 2.12 0 .814-.011 2.555.966 2.555.966 0 1.013-1.404 1.013-2.26 0-.562-.024-1.236-.187-1.77-.14-.463-.419-.645-.814-.645zM31.713.965c1.85 0 2.852 1.657 2.852 3.763 0 2.035-1.106 3.65-2.851 3.65-1.816 0-2.806-1.657-2.806-3.72 0-2.078 1.001-3.693 2.805-3.693zM36.964 8.237h-1.242a.24.24 0 01-.224-.24l-.002-6.673a.24.24 0 01.24-.218h1.156a.24.24 0 01.222.187v1.02h.023c.35-.913.838-1.348 1.699-1.348.559 0 1.106.21 1.455.787.326.533.326 1.431.326 2.077v4.198a.24.24 0 01-.24.21h-1.249a.239.239 0 01-.222-.21V4.405c0-.73.082-1.797-.78-1.797-.302 0-.582.21-.721.533-.175.408-.198.815-.198 1.264v3.592a.243.243 0 01-.243.24zM21.608 8.22a.25.25 0 01-.294.03c-.414-.359-.488-.524-.715-.866-.684.727-1.169.945-2.055.945-1.05 0-1.866-.676-1.866-2.026 0-1.055.548-1.773 1.33-2.125.676-.31 1.62-.365 2.344-.45V3.56c0-.31.023-.675-.152-.942-.152-.24-.443-.338-.7-.338-.475 0-.898.254-1.002.78-.022.117-.103.234-.216.24l-1.209-.137c-.102-.024-.215-.11-.186-.272C17.16 1.383 18.452.913 19.626.9h.092c.6.008 1.368.18 1.835.647.607.591.548 1.38.548 2.238v2.024c0 .61.243.877.47 1.205.08.118.098.259-.003.345-.255.223-.707.633-.956.864l-.004-.003zm-1.256-3.17c0 .507.011.93-.233 1.38-.199.365-.514.59-.864.59-.478 0-.757-.38-.757-.942 0-1.108.952-1.309 1.854-1.309v.282zM5.265 8.215a.25.25 0 01-.295.03c-.414-.358-.489-.524-.715-.866-.684.727-1.169.945-2.055.945-1.05 0-1.866-.675-1.866-2.026 0-1.055.548-1.772 1.33-2.124.676-.31 1.62-.366 2.343-.45v-.169c0-.31.024-.675-.15-.943-.153-.239-.444-.337-.7-.337-.476 0-.9.254-1.003.78-.021.117-.103.233-.216.24L.729 3.157c-.102-.025-.216-.11-.186-.272C.817 1.379 2.108.909 3.282.896h.092c.6.008 1.368.18 1.835.647.606.591.548 1.379.548 2.237v2.025c0 .61.243.876.47 1.204.08.119.098.26-.003.346-.255.223-.708.632-.956.863l-.003-.003zM4.007 5.046c0 .507.012.929-.233 1.38-.198.365-.513.59-.863.59-.478 0-.758-.38-.758-.943 0-1.107.953-1.308 1.854-1.308v.281zM57.66 10.63v-.49c0-.14.066-.236.205-.228.26.039.63.077.89.021.342-.074.587-.326.732-.672.205-.487.34-.88.425-1.138L57.32 1.425c-.044-.114-.057-.325.16-.325h.907c.173 0 .244.114.282.227l1.88 5.44 1.796-5.44c.036-.112.11-.227.282-.227h.855c.216 0 .204.21.16.325L61.07 8.332c-.333.92-.777 2.384-1.776 2.638-.5.137-1.132.088-1.503-.074-.094-.05-.13-.18-.13-.267zM56.45 7.828a.223.223 0 01-.218.227h-.64c-.137 0-.232-.104-.25-.227l-.063-.454c-.294.26-.655.487-1.046.646-.752.304-1.619.355-2.354-.116-.531-.34-.813-1.005-.813-1.69 0-.53.157-1.056.504-1.438.464-.522 1.137-.778 1.949-.778.49 0 1.192.06 1.703.234v-.913c0-.929-.375-1.33-1.364-1.33-.755 0-1.334.118-2.138.38-.129.004-.204-.098-.204-.223v-.52c0-.126.102-.246.213-.283.574-.261 1.388-.424 2.253-.454 1.128 0 2.468.265 2.468 2.074v4.865zm-1.229-1.333V5.117c-.429-.122-1.139-.173-1.413-.173-.435 0-.91.107-1.158.386-.186.204-.27.497-.27.78 0 .367.122.735.406.917.33.233.842.205 1.323.063.463-.137.897-.38 1.112-.595zM47.023 2.01c1.419 0 1.805 1.162 1.805 2.494.008.897-.15 1.698-.596 2.156-.334.343-.706.437-1.268.437-.5 0-1.156-.272-1.647-.65V2.639c.511-.409 1.163-.63 1.706-.63zM45.1 10.867h-.857a.223.223 0 01-.218-.226V1.338c0-.124.098-.226.218-.226h.656c.137 0 .232.104.25.226l.068.488c.614-.568 1.405-.933 2.158-.933 2.11 0 2.803 1.812 2.803 3.696 0 2.016-1.061 3.636-2.856 3.636-.755 0-1.462-.29-2.005-.796v3.213a.223.223 0 01-.217.226z" clip-rule="evenodd"></path></svg>