<svg xmlns="http://www.w3.org/2000/svg" id="Layer_1" x="0" y="0" version="1.1" viewBox="0 0 32 32" width="32" height="32" xml:space="preserve"><style>.st0{fill:#6933d3}</style><path d="M30.5 29.1h-29c-.8 0-1.5.7-1.5 1.5 0 .7.7 1.4 1.5 1.4h29.1c.8 0 1.5-.7 1.5-1.5-.1-.8-.8-1.4-1.6-1.4zM3.3 25.3c-.8 0-1.5.7-1.5 1.5s.7 1.5 1.5 1.5h25.4c.8 0 1.5-.7 1.5-1.5s-.7-1.5-1.5-1.5h-.4V12.2h.4c.4 0 .7-.3.7-.7s-.3-.7-.7-.7H3.3c-.4 0-.7.3-.7.7s.3.7.7.7h.4v13.1h-.4zm22.1-13.1v13.1H21V12.2h4.4zm-7.2 0v13.1h-4.4V12.2h4.4zm-11.7 0h4.4v13.1H6.5V12.2zM1.5 9.5h29.1c.7 0 1.4-.7 1.4-1.5 0-.6-.4-1.2-1-1.4L16.6.1c-.4-.2-.8-.2-1.2 0L.9 6.7c-.7.3-1 .9-.9 1.6.2.7.8 1.2 1.5 1.2z" class="st0"/></svg>